<?xml version="1.0" encoding="utf-8" ?>
<svg baseProfile="tiny" height="1101" version="1.2" width="561" xmlns="http://www.w3.org/2000/svg" xmlns:ev="http://www.w3.org/2001/xml-events" xmlns:xlink="http://www.w3.org/1999/xlink"><defs /><g id="0-0" transform="translate(1, 1)"><rect fill="none" height="100" stroke="#000000" stroke-width="1" width="70" x="0" y="0" /><rect fill="#cdcdd1" height="100.0" stroke-width="0" width="70" x="0" y="0.0" /></g><g id="0-1" transform="translate(81, 1)"><rect fill="none" height="100" stroke="#000000" stroke-width="1" width="70" x="0" y="0" /><rect fill="#cdcdd1" height="50.0" stroke-width="0" width="70" x="0" y="0.0" /><rect fill="#7dd1c3" height="50.0" stroke-width="0" width="70" x="0" y="50.0" /></g><g id="0-2" transform="translate(161, 1)"><rect fill="none" height="100" stroke="#000000" stroke-width="1" width="70" x="0" y="0" /><rect fill="#7dd1c3" height="100.0" stroke-width="0" width="70" x="0" y="0.0" /></g><g id="0-3" transform="translate(241, 1)"><rect fill="none" height="100" stroke="#000000" stroke-width="1" width="70" x="0" y="0" /><rect fill="#7dd1c3" height="100.0" stroke-width="0" width="70" x="0" y="0.0" /></g><g id="0-4" transform="translate(321, 1)"><rect fill="none" height="100" stroke="#000000" stroke-width="1" width="70" x="0" y="0" /><rect fill="#7dd1c3" height="40.0" stroke-width="0" width="70" x="0" y="0.0" /><rect fill="#24B39C" height="60.0" stroke-width="0" width="70" x="0" y="40.0" /></g><g id="0-5" transform="translate(401, 1)"><rect fill="none" height="100" stroke="#000000" stroke-width="1" width="70" x="0" y="0" /><rect fill="#24B39C" height="100.0" stroke-width="0" width="70" x="0" y="0.0" /></g><g id="0-6" transform="translate(481, 1)"><rect fill="none" height="100" stroke="#000000" stroke-width="1" width="70" x="0" y="0" /><rect fill="#24B39C" height="100.0" stroke-width="0" width="70" x="0" y="0.0" /></g><g id="1-0" transform="translate(1, 111)"><rect fill="none" height="100" stroke="#000000" stroke-width="1" width="70" x="0" y="0" /><rect fill="#24B39C" height="100.0" stroke-width="0" width="70" x="0" y="0.0" /></g><g id="1-1" transform="translate(81, 111)"><rect fill="none" height="100" stroke="#000000" stroke-width="1" width="70" x="0" y="0" /><rect fill="#24B39C" height="100.0" stroke-width="0" width="70" x="0" y="0.0" /></g><g id="1-2" transform="translate(161, 111)"><rect fill="none" height="100" stroke="#000000" stroke-width="1" width="70" x="0" y="0" /><rect fill="#24B39C" height="100.0" stroke-width="0" width="70" x="0" y="0.0" /></g><g id="1-3" transform="translate(241, 111)"><rect fill="none" height="100" stroke="#000000" stroke-width="1" width="70" x="0" y="0" /><rect fill="#24B39C" height="100.0" stroke-width="0" width="70" x="0" y="0.0" /></g><g id="1-4" transform="translate(321, 111)"><rect fill="none" height="100" stroke="#000000" stroke-width="1" width="70" x="0" y="0" /><rect fill="#24B39C" height="10.0" stroke-width="0" width="70" x="0" y="0.0" /><rect fill="#6C43C0" height="90.0" stroke-width="0" width="70" x="0" y="10.0" /></g><g id="1-5" transform="translate(401, 111)"><rect fill="none" height="100" stroke="#000000" stroke-width="1" width="70" x="0" y="0" /><rect fill="#6C43C0" height="100.0" stroke-width="0" width="70" x="0" y="0.0" /></g><g id="1-6" transform="translate(481, 111)"><rect fill="none" height="100" stroke="#000000" stroke-width="1" width="70" x="0" y="0" /><rect fill="#6C43C0" height="100.0" stroke-width="0" width="70" x="0" y="0.0" /></g><g id="2-0" transform="translate(1, 221)"><rect fill="none" height="100" stroke="#000000" stroke-width="1" width="70" x="0" y="0" /><rect fill="#6C43C0" height="50.0" stroke-width="0" width="70" x="0" y="0.0" /><rect fill="#24B39C" height="50.0" stroke-width="0" width="70" x="0" y="50.0" /></g><g id="2-1" transform="translate(81, 221)"><rect fill="none" height="100" stroke="#000000" stroke-width="1" width="70" x="0" y="0" /><rect fill="#24B39C" height="100.0" stroke-width="0" width="70" x="0" y="0.0" /></g><g id="2-2" transform="translate(161, 221)"><rect fill="none" height="100" stroke="#000000" stroke-width="1" width="70" x="0" y="0" /><rect fill="#24B39C" height="100.0" stroke-width="0" width="70" x="0" y="0.0" /></g><g id="2-3" transform="translate(241, 221)"><rect fill="none" height="100" stroke="#000000" stroke-width="1" width="70" x="0" y="0" /><rect fill="#24B39C" height="100.0" stroke-width="0" width="70" x="0" y="0.0" /></g><g id="2-4" transform="translate(321, 221)"><rect fill="none" height="100" stroke="#000000" stroke-width="1" width="70" x="0" y="0" /><rect fill="#24B39C" height="100.0" stroke-width="0" width="70" x="0" y="0.0" /></g><g id="2-5" transform="translate(401, 221)"><rect fill="none" height="100" stroke="#000000" stroke-width="1" width="70" x="0" y="0" /><rect fill="#24B39C" height="100.0" stroke-width="0" width="70" x="0" y="0.0" /></g><g id="2-6" transform="translate(481, 221)"><rect fill="none" height="100" stroke="#000000" stroke-width="1" width="70" x="0" y="0" /><rect fill="#cdcdd1" height="25.0" stroke-width="0" width="70" x="0" y="0.0" /><rect fill="#7dd1c3" height="25.0" stroke-width="0" width="70" x="0" y="25.0" /><rect fill="#24B39C" height="50.0" stroke-width="0" width="70" x="0" y="50.0" /></g><g id="3-0" transform="translate(1, 331)"><rect fill="none" height="100" stroke="#000000" stroke-width="1" width="70" x="0" y="0" /><rect fill="#24B39C" height="100.0" stroke-width="0" width="70" x="0" y="0.0" /></g><g id="3-1" transform="translate(81, 331)"><rect fill="none" height="100" stroke="#000000" stroke-width="1" width="70" x="0" y="0" /><rect fill="#24B39C" height="100.0" stroke-width="0" width="70" x="0" y="0.0" /></g><g id="3-2" transform="translate(161, 331)"><rect fill="none" height="100" stroke="#000000" stroke-width="1" width="70" x="0" y="0" /><rect fill="#cdcdd1" height="100.0" stroke-width="0" width="70" x="0" y="0.0" /></g><g id="3-3" transform="translate(241, 331)"><rect fill="none" height="100" stroke="#000000" stroke-width="1" width="70" x="0" y="0" /><rect fill="#24B39C" height="100.0" stroke-width="0" width="70" x="0" y="0.0" /></g><g id="3-4" transform="translate(321, 331)"><rect fill="none" height="100" stroke="#000000" stroke-width="1" width="70" x="0" y="0" /><rect fill="#24B39C" height="80.0" stroke-width="0" width="70" x="0" y="0.0" /><rect fill="#cdcdd1" height="20.0" stroke-width="0" width="70" x="0" y="80.0" /></g><g id="3-5" transform="translate(401, 331)"><rect fill="none" height="100" stroke="#000000" stroke-width="1" width="70" x="0" y="0" /><rect fill="#24B39C" height="100.0" stroke-width="0" width="70" x="0" y="0.0" /></g><g id="3-6" transform="translate(481, 331)"><rect fill="none" height="100" stroke="#000000" stroke-width="1" width="70" x="0" y="0" /><rect fill="#24B39C" height="80.0" stroke-width="0" width="70" x="0" y="0.0" /><rect fill="#cdcdd1" height="20.0" stroke-width="0" width="70" x="0" y="80.0" /></g><g id="4-0" transform="translate(1, 441)"><rect fill="none" height="100" stroke="#000000" stroke-width="1" width="70" x="0" y="0" /><rect fill="#24B39C" height="50.0" stroke-width="0" width="70" x="0" y="0.0" /><rect fill="#7dd1c3" height="30.0" stroke-width="0" width="70" x="0" y="50.0" /><rect fill="#24B39C" height="20.0" stroke-width="0" width="70" x="0" y="80.0" /></g><g id="4-1" transform="translate(81, 441)"><rect fill="none" height="100" stroke="#000000" stroke-width="1" width="70" x="0" y="0" /><rect fill="#24B39C" height="30.0" stroke-width="0" width="70" x="0" y="0.0" /><rect fill="#6C43C0" height="70.0" stroke-width="0" width="70" x="0" y="30.0" /></g><g id="4-2" transform="translate(161, 441)"><rect fill="none" height="100" stroke="#000000" stroke-width="1" width="70" x="0" y="0" /><rect fill="#6C43C0" height="60.0" stroke-width="0" width="70" x="0" y="0.0" /><rect fill="#24B39C" height="40.0" stroke-width="0" width="70" x="0" y="60.0" /></g><g id="4-3" transform="translate(241, 441)"><rect fill="none" height="100" stroke="#000000" stroke-width="1" width="70" x="0" y="0" /><rect fill="#24B39C" height="100.0" stroke-width="0" width="70" x="0" y="0.0" /></g><g id="4-4" transform="translate(321, 441)"><rect fill="none" height="100" stroke="#000000" stroke-width="1" width="70" x="0" y="0" /><rect fill="#24B39C" height="10.0" stroke-width="0" width="70" x="0" y="0.0" /><rect fill="#7dd1c3" height="50.0" stroke-width="0" width="70" x="0" y="10.0" /><rect fill="#24B39C" height="40.0" stroke-width="0" width="70" x="0" y="60.0" /></g><g id="4-5" transform="translate(401, 441)"><rect fill="none" height="100" stroke="#000000" stroke-width="1" width="70" x="0" y="0" /><rect fill="#24B39C" height="20.0" stroke-width="0" width="70" x="0" y="0.0" /><rect fill="#6C43C0" height="80.0" stroke-width="0" width="70" x="0" y="20.0" /></g><g id="4-6" transform="translate(481, 441)"><rect fill="none" height="100" stroke="#000000" stroke-width="1" width="70" x="0" y="0" /><rect fill="#6C43C0" height="20.0" stroke-width="0" width="70" x="0" y="0.0" /><rect fill="#cdcdd1" height="30.0" stroke-width="0" width="70" x="0" y="20.0" /><rect fill="#24B39C" height="40.0" stroke-width="0" width="70" x="0" y="50.0" /><rect fill="#7dd1c3" height="10.0" stroke-width="0" width="70" x="0" y="90.0" /></g><g id="5-0" transform="translate(1, 551)"><rect fill="none" height="100" stroke="#000000" stroke-width="1" width="70" x="0" y="0" /><rect fill="#24B39C" height="50.0" stroke-width="0" width="70" x="0" y="0.0" /><rect fill="#cdcdd1" height="50.0" stroke-width="0" width="70" x="0" y="50.0" /></g><g id="5-1" transform="translate(81, 551)"><rect fill="none" height="100" stroke="#000000" stroke-width="1" width="70" x="0" y="0" /><rect fill="#7dd1c3" height="30.0" stroke-width="0" width="70" x="0" y="0.0" /><rect fill="#24B39C" height="70.0" stroke-width="0" width="70" x="0" y="30.0" /></g><g id="5-2" transform="translate(161, 551)"><rect fill="none" height="100" stroke="#000000" stroke-width="1" width="70" x="0" y="0" /><rect fill="#24B39C" height="100.0" stroke-width="0" width="70" x="0" y="0.0" /></g><g id="5-3" transform="translate(241, 551)"><rect fill="none" height="100" stroke="#000000" stroke-width="1" width="70" x="0" y="0" /><rect fill="#24B39C" height="100.0" stroke-width="0" width="70" x="0" y="0.0" /></g><g id="5-4" transform="translate(321, 551)"><rect fill="none" height="100" stroke="#000000" stroke-width="1" width="70" x="0" y="0" /><rect fill="#24B39C" height="80.0" stroke-width="0" width="70" x="0" y="0.0" /><rect fill="#6C43C0" height="20.0" stroke-width="0" width="70" x="0" y="80.0" /></g><g id="5-5" transform="translate(401, 551)"><rect fill="none" height="100" stroke="#000000" stroke-width="1" width="70" x="0" y="0" /><rect fill="#6C43C0" height="50.0" stroke-width="0" width="70" x="0" y="0.0" /><rect fill="#24B39C" height="50.0" stroke-width="0" width="70" x="0" y="50.0" /></g><g id="5-6" transform="translate(481, 551)"><rect fill="none" height="100" stroke="#000000" stroke-width="1" width="70" x="0" y="0" /><rect fill="#24B39C" height="20.0" stroke-width="0" width="70" x="0" y="0.0" /><rect fill="#6C43C0" height="80.0" stroke-width="0" width="70" x="0" y="20.0" /></g><g id="6-0" transform="translate(1, 661)"><rect fill="none" height="100" stroke="#000000" stroke-width="1" width="70" x="0" y="0" /><rect fill="#6C43C0" height="50.0" stroke-width="0" width="70" x="0" y="0.0" /><rect fill="#24B39C" height="50.0" stroke-width="0" width="70" x="0" y="50.0" /></g><g id="6-1" transform="translate(81, 661)"><rect fill="none" height="100" stroke="#000000" stroke-width="1" width="70" x="0" y="0" /><rect fill="#24B39C" height="100.0" stroke-width="0" width="70" x="0" y="0.0" /></g><g id="6-2" transform="translate(161, 661)"><rect fill="none" height="100" stroke="#000000" stroke-width="1" width="70" x="0" y="0" /><rect fill="#24B39C" height="40.0" stroke-width="0" width="70" x="0" y="0.0" /><rect fill="#6C43C0" height="60.0" stroke-width="0" width="70" x="0" y="40.0" /></g><g id="6-3" transform="translate(241, 661)"><rect fill="none" height="100" stroke="#000000" stroke-width="1" width="70" x="0" y="0" /><rect fill="#7dd1c3" height="20.0" stroke-width="0" width="70" x="0" y="0.0" /><rect fill="#24B39C" height="80.0" stroke-width="0" width="70" x="0" y="20.0" /></g><g id="6-4" transform="translate(321, 661)"><rect fill="none" height="100" stroke="#000000" stroke-width="1" width="70" x="0" y="0" /><rect fill="#24B39C" height="100.0" stroke-width="0" width="70" x="0" y="0.0" /></g><g id="6-5" transform="translate(401, 661)"><rect fill="none" height="100" stroke="#000000" stroke-width="1" width="70" x="0" y="0" /><rect fill="#24B39C" height="30.0" stroke-width="0" width="70" x="0" y="0.0" /><rect fill="#7dd1c3" height="70.0" stroke-width="0" width="70" x="0" y="30.0" /></g><g id="6-6" transform="translate(481, 661)"><rect fill="none" height="100" stroke="#000000" stroke-width="1" width="70" x="0" y="0" /><rect fill="#7dd1c3" height="50.0" stroke-width="0" width="70" x="0" y="0.0" /><rect fill="#6C43C0" height="50.0" stroke-width="0" width="70" x="0" y="50.0" /></g><g id="7-0" transform="translate(1, 771)"><rect fill="none" height="100" stroke="#000000" stroke-width="1" width="70" x="0" y="0" /><rect fill="#6C43C0" height="100.0" stroke-width="0" width="70" x="0" y="0.0" /></g><g id="7-1" transform="translate(81, 771)"><rect fill="none" height="100" stroke="#000000" stroke-width="1" width="70" x="0" y="0" /><rect fill="#6C43C0" height="100.0" stroke-width="0" width="70" x="0" y="0.0" /></g><g id="7-2" transform="translate(161, 771)"><rect fill="none" height="100" stroke="#000000" stroke-width="1" width="70" x="0" y="0" /><rect fill="#6C43C0" height="100.0" stroke-width="0" width="70" x="0" y="0.0" /></g><g id="7-3" transform="translate(241, 771)"><rect fill="none" height="100" stroke="#000000" stroke-width="1" width="70" x="0" y="0" /><rect fill="#6C43C0" height="100.0" stroke-width="0" width="70" x="0" y="0.0" /></g><g id="7-4" transform="translate(321, 771)"><rect fill="none" height="100" stroke="#000000" stroke-width="1" width="70" x="0" y="0" /><rect fill="#6C43C0" height="90.0" stroke-width="0" width="70" x="0" y="0.0" /><rect fill="#7dd1c3" height="10.0" stroke-width="0" width="70" x="0" y="90.0" /></g><g id="7-5" transform="translate(401, 771)"><rect fill="none" height="100" stroke="#000000" stroke-width="1" width="70" x="0" y="0" /><rect fill="#7dd1c3" height="10.0" stroke-width="0" width="70" x="0" y="0.0" /><rect fill="#6C43C0" height="90.0" stroke-width="0" width="70" x="0" y="10.0" /></g><g id="7-6" transform="translate(481, 771)"><rect fill="none" height="100" stroke="#000000" stroke-width="1" width="70" x="0" y="0" /><rect fill="#6C43C0" height="100.0" stroke-width="0" width="70" x="0" y="0.0" /></g><g id="8-0" transform="translate(1, 881)"><rect fill="none" height="100" stroke="#000000" stroke-width="1" width="70" x="0" y="0" /><rect fill="#6C43C0" height="100.0" stroke-width="0" width="70" x="0" y="0.0" /></g><g id="8-1" transform="translate(81, 881)"><rect fill="none" height="100" stroke="#000000" stroke-width="1" width="70" x="0" y="0" /><rect fill="#6C43C0" height="100.0" stroke-width="0" width="70" x="0" y="0.0" /></g><g id="8-2" transform="translate(161, 881)"><rect fill="none" height="100" stroke="#000000" stroke-width="1" width="70" x="0" y="0" /><rect fill="#6C43C0" height="100.0" stroke-width="0" width="70" x="0" y="0.0" /></g><g id="8-3" transform="translate(241, 881)"><rect fill="none" height="100" stroke="#000000" stroke-width="1" width="70" x="0" y="0" /><rect fill="#6C43C0" height="40.0" stroke-width="0" width="70" x="0" y="0.0" /><rect fill="#24B39C" height="60.0" stroke-width="0" width="70" x="0" y="40.0" /></g><g id="8-4" transform="translate(321, 881)"><rect fill="none" height="100" stroke="#000000" stroke-width="1" width="70" x="0" y="0" /><rect fill="#24B39C" height="100.0" stroke-width="0" width="70" x="0" y="0.0" /></g><g id="8-5" transform="translate(401, 881)"><rect fill="none" height="100" stroke="#000000" stroke-width="1" width="70" x="0" y="0" /><rect fill="#24B39C" height="100.0" stroke-width="0" width="70" x="0" y="0.0" /></g><g id="8-6" transform="translate(481, 881)"><rect fill="none" height="100" stroke="#000000" stroke-width="1" width="70" x="0" y="0" /><rect fill="#24B39C" height="100.0" stroke-width="0" width="70" x="0" y="0.0" /></g><g id="9-0" transform="translate(1, 991)"><rect fill="none" height="100" stroke="#000000" stroke-width="1" width="70" x="0" y="0" /><rect fill="#24B39C" height="100.0" stroke-width="0" width="70" x="0" y="0.0" /></g><g id="9-1" transform="translate(81, 991)"><rect fill="none" height="100" stroke="#000000" stroke-width="1" width="70" x="0" y="0" /><rect fill="#24B39C" height="50.0" stroke-width="0" width="70" x="0" y="0.0" /><rect fill="#7dd1c3" height="50.0" stroke-width="0" width="70" x="0" y="50.0" /></g><g id="9-2" transform="translate(161, 991)"><rect fill="none" height="100" stroke="#000000" stroke-width="1" width="70" x="0" y="0" /><rect fill="#24B39C" height="100.0" stroke-width="0" width="70" x="0" y="0.0" /></g><g id="9-3" transform="translate(241, 991)"><rect fill="none" height="100" stroke="#000000" stroke-width="1" width="70" x="0" y="0" /><rect fill="#24B39C" height="100.0" stroke-width="0" width="70" x="0" y="0.0" /></g><g id="9-4" transform="translate(321, 991)"><rect fill="none" height="100" stroke="#000000" stroke-width="1" width="70" x="0" y="0" /><rect fill="#24B39C" height="50.0" stroke-width="0" width="70" x="0" y="0.0" /><rect fill="#7dd1c3" height="50.0" stroke-width="0" width="70" x="0" y="50.0" /></g><g id="9-5" transform="translate(401, 991)"><rect fill="none" height="100" stroke="#000000" stroke-width="1" width="70" x="0" y="0" /><rect fill="#7dd1c3" height="100.0" stroke-width="0" width="70" x="0" y="0.0" /></g><g id="9-6" transform="translate(481, 991)"><rect fill="none" height="100" stroke="#000000" stroke-width="1" width="70" x="0" y="0" /><rect fill="#cdcdd1" height="100.0" stroke-width="0" width="70" x="0" y="0.0" /></g></svg>