<?xml version="1.0" encoding="utf-8" ?>
<svg baseProfile="tiny" height="551" version="1.2" width="1121" xmlns="http://www.w3.org/2000/svg" xmlns:ev="http://www.w3.org/2001/xml-events" xmlns:xlink="http://www.w3.org/1999/xlink"><defs /><g id="0-0" transform="translate(1, 1)"><rect fill="none" height="100" stroke="#000000" stroke-width="1" width="70" x="0" y="0" /><rect fill="#cdcdd1" height="100.0" stroke-width="0" width="70" x="0" y="0.0" /></g><g id="0-1" transform="translate(81, 1)"><rect fill="none" height="100" stroke="#000000" stroke-width="1" width="70" x="0" y="0" /><rect fill="#cdcdd1" height="50.0" stroke-width="0" width="70" x="0" y="0.0" /><rect fill="#7dd1c3" height="50.0" stroke-width="0" width="70" x="0" y="50.0" /></g><g id="0-2" transform="translate(161, 1)"><rect fill="none" height="100" stroke="#000000" stroke-width="1" width="70" x="0" y="0" /><rect fill="#7dd1c3" height="100.0" stroke-width="0" width="70" x="0" y="0.0" /></g><g id="0-3" transform="translate(241, 1)"><rect fill="none" height="100" stroke="#000000" stroke-width="1" width="70" x="0" y="0" /><rect fill="#7dd1c3" height="100.0" stroke-width="0" width="70" x="0" y="0.0" /></g><g id="0-4" transform="translate(321, 1)"><rect fill="none" height="100" stroke="#000000" stroke-width="1" width="70" x="0" y="0" /><rect fill="#7dd1c3" height="40.0" stroke-width="0" width="70" x="0" y="0.0" /><rect fill="#24B39C" height="60.0" stroke-width="0" width="70" x="0" y="40.0" /></g><g id="0-5" transform="translate(401, 1)"><rect fill="none" height="100" stroke="#000000" stroke-width="1" width="70" x="0" y="0" /><rect fill="#24B39C" height="100.0" stroke-width="0" width="70" x="0" y="0.0" /></g><g id="0-6" transform="translate(481, 1)"><rect fill="none" height="100" stroke="#000000" stroke-width="1" width="70" x="0" y="0" /><rect fill="#24B39C" height="100.0" stroke-width="0" width="70" x="0" y="0.0" /></g><g id="0-7" transform="translate(561, 1)"><rect fill="none" height="100" stroke="#000000" stroke-width="1" width="70" x="0" y="0" /><rect fill="#24B39C" height="100.0" stroke-width="0" width="70" x="0" y="0.0" /></g><g id="0-8" transform="translate(641, 1)"><rect fill="none" height="100" stroke="#000000" stroke-width="1" width="70" x="0" y="0" /><rect fill="#24B39C" height="100.0" stroke-width="0" width="70" x="0" y="0.0" /></g><g id="0-9" transform="translate(721, 1)"><rect fill="none" height="100" stroke="#000000" stroke-width="1" width="70" x="0" y="0" /><rect fill="#24B39C" height="100.0" stroke-width="0" width="70" x="0" y="0.0" /></g><g id="0-10" transform="translate(801, 1)"><rect fill="none" height="100" stroke="#000000" stroke-width="1" width="70" x="0" y="0" /><rect fill="#24B39C" height="100.0" stroke-width="0" width="70" x="0" y="0.0" /></g><g id="0-11" transform="translate(881, 1)"><rect fill="none" height="100" stroke="#000000" stroke-width="1" width="70" x="0" y="0" /><rect fill="#24B39C" height="10.0" stroke-width="0" width="70" x="0" y="0.0" /><rect fill="#6C43C0" height="90.0" stroke-width="0" width="70" x="0" y="10.0" /></g><g id="0-12" transform="translate(961, 1)"><rect fill="none" height="100" stroke="#000000" stroke-width="1" width="70" x="0" y="0" /><rect fill="#6C43C0" height="100.0" stroke-width="0" width="70" x="0" y="0.0" /></g><g id="0-13" transform="translate(1041, 1)"><rect fill="none" height="100" stroke="#000000" stroke-width="1" width="70" x="0" y="0" /><rect fill="#6C43C0" height="100.0" stroke-width="0" width="70" x="0" y="0.0" /></g><g id="1-0" transform="translate(1, 111)"><rect fill="none" height="100" stroke="#000000" stroke-width="1" width="70" x="0" y="0" /><rect fill="#6C43C0" height="50.0" stroke-width="0" width="70" x="0" y="0.0" /><rect fill="#24B39C" height="50.0" stroke-width="0" width="70" x="0" y="50.0" /></g><g id="1-1" transform="translate(81, 111)"><rect fill="none" height="100" stroke="#000000" stroke-width="1" width="70" x="0" y="0" /><rect fill="#24B39C" height="100.0" stroke-width="0" width="70" x="0" y="0.0" /></g><g id="1-2" transform="translate(161, 111)"><rect fill="none" height="100" stroke="#000000" stroke-width="1" width="70" x="0" y="0" /><rect fill="#24B39C" height="100.0" stroke-width="0" width="70" x="0" y="0.0" /></g><g id="1-3" transform="translate(241, 111)"><rect fill="none" height="100" stroke="#000000" stroke-width="1" width="70" x="0" y="0" /><rect fill="#24B39C" height="100.0" stroke-width="0" width="70" x="0" y="0.0" /></g><g id="1-4" transform="translate(321, 111)"><rect fill="none" height="100" stroke="#000000" stroke-width="1" width="70" x="0" y="0" /><rect fill="#24B39C" height="100.0" stroke-width="0" width="70" x="0" y="0.0" /></g><g id="1-5" transform="translate(401, 111)"><rect fill="none" height="100" stroke="#000000" stroke-width="1" width="70" x="0" y="0" /><rect fill="#24B39C" height="100.0" stroke-width="0" width="70" x="0" y="0.0" /></g><g id="1-6" transform="translate(481, 111)"><rect fill="none" height="100" stroke="#000000" stroke-width="1" width="70" x="0" y="0" /><rect fill="#cdcdd1" height="25.0" stroke-width="0" width="70" x="0" y="0.0" /><rect fill="#7dd1c3" height="25.0" stroke-width="0" width="70" x="0" y="25.0" /><rect fill="#24B39C" height="50.0" stroke-width="0" width="70" x="0" y="50.0" /></g><g id="1-7" transform="translate(561, 111)"><rect fill="none" height="100" stroke="#000000" stroke-width="1" width="70" x="0" y="0" /><rect fill="#24B39C" height="100.0" stroke-width="0" width="70" x="0" y="0.0" /></g><g id="1-8" transform="translate(641, 111)"><rect fill="none" height="100" stroke="#000000" stroke-width="1" width="70" x="0" y="0" /><rect fill="#24B39C" height="100.0" stroke-width="0" width="70" x="0" y="0.0" /></g><g id="1-9" transform="translate(721, 111)"><rect fill="none" height="100" stroke="#000000" stroke-width="1" width="70" x="0" y="0" /><rect fill="#cdcdd1" height="100.0" stroke-width="0" width="70" x="0" y="0.0" /></g><g id="1-10" transform="translate(801, 111)"><rect fill="none" height="100" stroke="#000000" stroke-width="1" width="70" x="0" y="0" /><rect fill="#24B39C" height="100.0" stroke-width="0" width="70" x="0" y="0.0" /></g><g id="1-11" transform="translate(881, 111)"><rect fill="none" height="100" stroke="#000000" stroke-width="1" width="70" x="0" y="0" /><rect fill="#24B39C" height="80.0" stroke-width="0" width="70" x="0" y="0.0" /><rect fill="#cdcdd1" height="20.0" stroke-width="0" width="70" x="0" y="80.0" /></g><g id="1-12" transform="translate(961, 111)"><rect fill="none" height="100" stroke="#000000" stroke-width="1" width="70" x="0" y="0" /><rect fill="#24B39C" height="100.0" stroke-width="0" width="70" x="0" y="0.0" /></g><g id="1-13" transform="translate(1041, 111)"><rect fill="none" height="100" stroke="#000000" stroke-width="1" width="70" x="0" y="0" /><rect fill="#24B39C" height="80.0" stroke-width="0" width="70" x="0" y="0.0" /><rect fill="#cdcdd1" height="20.0" stroke-width="0" width="70" x="0" y="80.0" /></g><g id="2-0" transform="translate(1, 221)"><rect fill="none" height="100" stroke="#000000" stroke-width="1" width="70" x="0" y="0" /><rect fill="#24B39C" height="50.0" stroke-width="0" width="70" x="0" y="0.0" /><rect fill="#7dd1c3" height="30.0" stroke-width="0" width="70" x="0" y="50.0" /><rect fill="#24B39C" height="20.0" stroke-width="0" width="70" x="0" y="80.0" /></g><g id="2-1" transform="translate(81, 221)"><rect fill="none" height="100" stroke="#000000" stroke-width="1" width="70" x="0" y="0" /><rect fill="#24B39C" height="30.0" stroke-width="0" width="70" x="0" y="0.0" /><rect fill="#6C43C0" height="70.0" stroke-width="0" width="70" x="0" y="30.0" /></g><g id="2-2" transform="translate(161, 221)"><rect fill="none" height="100" stroke="#000000" stroke-width="1" width="70" x="0" y="0" /><rect fill="#6C43C0" height="60.0" stroke-width="0" width="70" x="0" y="0.0" /><rect fill="#24B39C" height="40.0" stroke-width="0" width="70" x="0" y="60.0" /></g><g id="2-3" transform="translate(241, 221)"><rect fill="none" height="100" stroke="#000000" stroke-width="1" width="70" x="0" y="0" /><rect fill="#24B39C" height="100.0" stroke-width="0" width="70" x="0" y="0.0" /></g><g id="2-4" transform="translate(321, 221)"><rect fill="none" height="100" stroke="#000000" stroke-width="1" width="70" x="0" y="0" /><rect fill="#24B39C" height="10.0" stroke-width="0" width="70" x="0" y="0.0" /><rect fill="#7dd1c3" height="50.0" stroke-width="0" width="70" x="0" y="10.0" /><rect fill="#24B39C" height="40.0" stroke-width="0" width="70" x="0" y="60.0" /></g><g id="2-5" transform="translate(401, 221)"><rect fill="none" height="100" stroke="#000000" stroke-width="1" width="70" x="0" y="0" /><rect fill="#24B39C" height="20.0" stroke-width="0" width="70" x="0" y="0.0" /><rect fill="#6C43C0" height="80.0" stroke-width="0" width="70" x="0" y="20.0" /></g><g id="2-6" transform="translate(481, 221)"><rect fill="none" height="100" stroke="#000000" stroke-width="1" width="70" x="0" y="0" /><rect fill="#6C43C0" height="20.0" stroke-width="0" width="70" x="0" y="0.0" /><rect fill="#cdcdd1" height="30.0" stroke-width="0" width="70" x="0" y="20.0" /><rect fill="#24B39C" height="40.0" stroke-width="0" width="70" x="0" y="50.0" /><rect fill="#7dd1c3" height="10.0" stroke-width="0" width="70" x="0" y="90.0" /></g><g id="2-7" transform="translate(561, 221)"><rect fill="none" height="100" stroke="#000000" stroke-width="1" width="70" x="0" y="0" /><rect fill="#24B39C" height="50.0" stroke-width="0" width="70" x="0" y="0.0" /><rect fill="#cdcdd1" height="50.0" stroke-width="0" width="70" x="0" y="50.0" /></g><g id="2-8" transform="translate(641, 221)"><rect fill="none" height="100" stroke="#000000" stroke-width="1" width="70" x="0" y="0" /><rect fill="#7dd1c3" height="30.0" stroke-width="0" width="70" x="0" y="0.0" /><rect fill="#24B39C" height="70.0" stroke-width="0" width="70" x="0" y="30.0" /></g><g id="2-9" transform="translate(721, 221)"><rect fill="none" height="100" stroke="#000000" stroke-width="1" width="70" x="0" y="0" /><rect fill="#24B39C" height="100.0" stroke-width="0" width="70" x="0" y="0.0" /></g><g id="2-10" transform="translate(801, 221)"><rect fill="none" height="100" stroke="#000000" stroke-width="1" width="70" x="0" y="0" /><rect fill="#24B39C" height="100.0" stroke-width="0" width="70" x="0" y="0.0" /></g><g id="2-11" transform="translate(881, 221)"><rect fill="none" height="100" stroke="#000000" stroke-width="1" width="70" x="0" y="0" /><rect fill="#24B39C" height="80.0" stroke-width="0" width="70" x="0" y="0.0" /><rect fill="#6C43C0" height="20.0" stroke-width="0" width="70" x="0" y="80.0" /></g><g id="2-12" transform="translate(961, 221)"><rect fill="none" height="100" stroke="#000000" stroke-width="1" width="70" x="0" y="0" /><rect fill="#6C43C0" height="50.0" stroke-width="0" width="70" x="0" y="0.0" /><rect fill="#24B39C" height="50.0" stroke-width="0" width="70" x="0" y="50.0" /></g><g id="2-13" transform="translate(1041, 221)"><rect fill="none" height="100" stroke="#000000" stroke-width="1" width="70" x="0" y="0" /><rect fill="#24B39C" height="20.0" stroke-width="0" width="70" x="0" y="0.0" /><rect fill="#6C43C0" height="80.0" stroke-width="0" width="70" x="0" y="20.0" /></g><g id="3-0" transform="translate(1, 331)"><rect fill="none" height="100" stroke="#000000" stroke-width="1" width="70" x="0" y="0" /><rect fill="#6C43C0" height="50.0" stroke-width="0" width="70" x="0" y="0.0" /><rect fill="#24B39C" height="50.0" stroke-width="0" width="70" x="0" y="50.0" /></g><g id="3-1" transform="translate(81, 331)"><rect fill="none" height="100" stroke="#000000" stroke-width="1" width="70" x="0" y="0" /><rect fill="#24B39C" height="100.0" stroke-width="0" width="70" x="0" y="0.0" /></g><g id="3-2" transform="translate(161, 331)"><rect fill="none" height="100" stroke="#000000" stroke-width="1" width="70" x="0" y="0" /><rect fill="#24B39C" height="40.0" stroke-width="0" width="70" x="0" y="0.0" /><rect fill="#6C43C0" height="60.0" stroke-width="0" width="70" x="0" y="40.0" /></g><g id="3-3" transform="translate(241, 331)"><rect fill="none" height="100" stroke="#000000" stroke-width="1" width="70" x="0" y="0" /><rect fill="#7dd1c3" height="20.0" stroke-width="0" width="70" x="0" y="0.0" /><rect fill="#24B39C" height="80.0" stroke-width="0" width="70" x="0" y="20.0" /></g><g id="3-4" transform="translate(321, 331)"><rect fill="none" height="100" stroke="#000000" stroke-width="1" width="70" x="0" y="0" /><rect fill="#24B39C" height="100.0" stroke-width="0" width="70" x="0" y="0.0" /></g><g id="3-5" transform="translate(401, 331)"><rect fill="none" height="100" stroke="#000000" stroke-width="1" width="70" x="0" y="0" /><rect fill="#24B39C" height="30.0" stroke-width="0" width="70" x="0" y="0.0" /><rect fill="#7dd1c3" height="70.0" stroke-width="0" width="70" x="0" y="30.0" /></g><g id="3-6" transform="translate(481, 331)"><rect fill="none" height="100" stroke="#000000" stroke-width="1" width="70" x="0" y="0" /><rect fill="#7dd1c3" height="50.0" stroke-width="0" width="70" x="0" y="0.0" /><rect fill="#6C43C0" height="50.0" stroke-width="0" width="70" x="0" y="50.0" /></g><g id="3-7" transform="translate(561, 331)"><rect fill="none" height="100" stroke="#000000" stroke-width="1" width="70" x="0" y="0" /><rect fill="#6C43C0" height="100.0" stroke-width="0" width="70" x="0" y="0.0" /></g><g id="3-8" transform="translate(641, 331)"><rect fill="none" height="100" stroke="#000000" stroke-width="1" width="70" x="0" y="0" /><rect fill="#6C43C0" height="100.0" stroke-width="0" width="70" x="0" y="0.0" /></g><g id="3-9" transform="translate(721, 331)"><rect fill="none" height="100" stroke="#000000" stroke-width="1" width="70" x="0" y="0" /><rect fill="#6C43C0" height="100.0" stroke-width="0" width="70" x="0" y="0.0" /></g><g id="3-10" transform="translate(801, 331)"><rect fill="none" height="100" stroke="#000000" stroke-width="1" width="70" x="0" y="0" /><rect fill="#6C43C0" height="100.0" stroke-width="0" width="70" x="0" y="0.0" /></g><g id="3-11" transform="translate(881, 331)"><rect fill="none" height="100" stroke="#000000" stroke-width="1" width="70" x="0" y="0" /><rect fill="#6C43C0" height="90.0" stroke-width="0" width="70" x="0" y="0.0" /><rect fill="#7dd1c3" height="10.0" stroke-width="0" width="70" x="0" y="90.0" /></g><g id="3-12" transform="translate(961, 331)"><rect fill="none" height="100" stroke="#000000" stroke-width="1" width="70" x="0" y="0" /><rect fill="#7dd1c3" height="10.0" stroke-width="0" width="70" x="0" y="0.0" /><rect fill="#6C43C0" height="90.0" stroke-width="0" width="70" x="0" y="10.0" /></g><g id="3-13" transform="translate(1041, 331)"><rect fill="none" height="100" stroke="#000000" stroke-width="1" width="70" x="0" y="0" /><rect fill="#6C43C0" height="100.0" stroke-width="0" width="70" x="0" y="0.0" /></g><g id="4-0" transform="translate(1, 441)"><rect fill="none" height="100" stroke="#000000" stroke-width="1" width="70" x="0" y="0" /><rect fill="#6C43C0" height="100.0" stroke-width="0" width="70" x="0" y="0.0" /></g><g id="4-1" transform="translate(81, 441)"><rect fill="none" height="100" stroke="#000000" stroke-width="1" width="70" x="0" y="0" /><rect fill="#6C43C0" height="100.0" stroke-width="0" width="70" x="0" y="0.0" /></g><g id="4-2" transform="translate(161, 441)"><rect fill="none" height="100" stroke="#000000" stroke-width="1" width="70" x="0" y="0" /><rect fill="#6C43C0" height="100.0" stroke-width="0" width="70" x="0" y="0.0" /></g><g id="4-3" transform="translate(241, 441)"><rect fill="none" height="100" stroke="#000000" stroke-width="1" width="70" x="0" y="0" /><rect fill="#6C43C0" height="40.0" stroke-width="0" width="70" x="0" y="0.0" /><rect fill="#24B39C" height="60.0" stroke-width="0" width="70" x="0" y="40.0" /></g><g id="4-4" transform="translate(321, 441)"><rect fill="none" height="100" stroke="#000000" stroke-width="1" width="70" x="0" y="0" /><rect fill="#24B39C" height="100.0" stroke-width="0" width="70" x="0" y="0.0" /></g><g id="4-5" transform="translate(401, 441)"><rect fill="none" height="100" stroke="#000000" stroke-width="1" width="70" x="0" y="0" /><rect fill="#24B39C" height="100.0" stroke-width="0" width="70" x="0" y="0.0" /></g><g id="4-6" transform="translate(481, 441)"><rect fill="none" height="100" stroke="#000000" stroke-width="1" width="70" x="0" y="0" /><rect fill="#24B39C" height="100.0" stroke-width="0" width="70" x="0" y="0.0" /></g><g id="4-7" transform="translate(561, 441)"><rect fill="none" height="100" stroke="#000000" stroke-width="1" width="70" x="0" y="0" /><rect fill="#24B39C" height="100.0" stroke-width="0" width="70" x="0" y="0.0" /></g><g id="4-8" transform="translate(641, 441)"><rect fill="none" height="100" stroke="#000000" stroke-width="1" width="70" x="0" y="0" /><rect fill="#24B39C" height="50.0" stroke-width="0" width="70" x="0" y="0.0" /><rect fill="#7dd1c3" height="50.0" stroke-width="0" width="70" x="0" y="50.0" /></g><g id="4-9" transform="translate(721, 441)"><rect fill="none" height="100" stroke="#000000" stroke-width="1" width="70" x="0" y="0" /><rect fill="#24B39C" height="100.0" stroke-width="0" width="70" x="0" y="0.0" /></g><g id="4-10" transform="translate(801, 441)"><rect fill="none" height="100" stroke="#000000" stroke-width="1" width="70" x="0" y="0" /><rect fill="#24B39C" height="100.0" stroke-width="0" width="70" x="0" y="0.0" /></g><g id="4-11" transform="translate(881, 441)"><rect fill="none" height="100" stroke="#000000" stroke-width="1" width="70" x="0" y="0" /><rect fill="#24B39C" height="50.0" stroke-width="0" width="70" x="0" y="0.0" /><rect fill="#7dd1c3" height="50.0" stroke-width="0" width="70" x="0" y="50.0" /></g><g id="4-12" transform="translate(961, 441)"><rect fill="none" height="100" stroke="#000000" stroke-width="1" width="70" x="0" y="0" /><rect fill="#7dd1c3" height="100.0" stroke-width="0" width="70" x="0" y="0.0" /></g><g id="4-13" transform="translate(1041, 441)"><rect fill="none" height="100" stroke="#000000" stroke-width="1" width="70" x="0" y="0" /><rect fill="#cdcdd1" height="100.0" stroke-width="0" width="70" x="0" y="0.0" /></g></svg>